<mxfile host="Electron" modified="2024-08-30T06:08:35.566Z" agent="Mozilla/5.0 (Windows NT 10.0; Win64; x64) AppleWebKit/537.36 (KHTML, like Gecko) draw.io/21.8.2 Chrome/114.0.5735.289 Electron/25.8.1 Safari/537.36" etag="l9WTlQ2cB1CijeId_hUG" version="21.8.2" type="device">
  <diagram name="Seite-1" id="plPBQ5ILAOS8geBV_CHv">
    <mxGraphModel dx="1715" dy="983" grid="0" gridSize="10" guides="1" tooltips="1" connect="1" arrows="1" fold="1" page="1" pageScale="1" pageWidth="827" pageHeight="1169" math="0" shadow="0">
      <root>
        <mxCell id="0" />
        <mxCell id="1" parent="0" />
        <mxCell id="6NcyVYANsM9x7sfS9dqc-1" value="" style="rounded=0;whiteSpace=wrap;html=1;" vertex="1" parent="1">
          <mxGeometry x="403" y="113" width="232" height="907" as="geometry" />
        </mxCell>
        <mxCell id="6NcyVYANsM9x7sfS9dqc-3" value="User" style="shape=umlActor;verticalLabelPosition=bottom;verticalAlign=top;html=1;outlineConnect=0;" vertex="1" parent="1">
          <mxGeometry x="172" y="536.5" width="30" height="60" as="geometry" />
        </mxCell>
        <mxCell id="6NcyVYANsM9x7sfS9dqc-4" value="WeatherGuesser_LA_ILA3_0110" style="text;html=1;align=center;verticalAlign=middle;resizable=0;points=[];autosize=1;strokeColor=none;fillColor=none;" vertex="1" parent="1">
          <mxGeometry x="422" y="113" width="194" height="26" as="geometry" />
        </mxCell>
        <mxCell id="6NcyVYANsM9x7sfS9dqc-5" value="Spiel starten" style="ellipse;whiteSpace=wrap;html=1;" vertex="1" parent="1">
          <mxGeometry x="466" y="146" width="106" height="66" as="geometry" />
        </mxCell>
        <mxCell id="6NcyVYANsM9x7sfS9dqc-6" value="Temperatur ansehen" style="ellipse;whiteSpace=wrap;html=1;" vertex="1" parent="1">
          <mxGeometry x="466" y="219" width="106" height="66" as="geometry" />
        </mxCell>
        <mxCell id="6NcyVYANsM9x7sfS9dqc-7" value="Luftfeuchtigkeit ansehen" style="ellipse;whiteSpace=wrap;html=1;" vertex="1" parent="1">
          <mxGeometry x="466" y="292" width="106" height="66" as="geometry" />
        </mxCell>
        <mxCell id="6NcyVYANsM9x7sfS9dqc-8" value="Luftdruck ansehen" style="ellipse;whiteSpace=wrap;html=1;" vertex="1" parent="1">
          <mxGeometry x="466" y="365" width="106" height="66" as="geometry" />
        </mxCell>
        <mxCell id="6NcyVYANsM9x7sfS9dqc-9" value="Höhe in Meter über Meer ansehen" style="ellipse;whiteSpace=wrap;html=1;" vertex="1" parent="1">
          <mxGeometry x="466" y="438" width="106" height="66" as="geometry" />
        </mxCell>
        <mxCell id="6NcyVYANsM9x7sfS9dqc-10" value="aktuelle Wetterlage ansehen" style="ellipse;whiteSpace=wrap;html=1;" vertex="1" parent="1">
          <mxGeometry x="466" y="511" width="106" height="66" as="geometry" />
        </mxCell>
        <mxCell id="6NcyVYANsM9x7sfS9dqc-13" value="" style="endArrow=classic;html=1;rounded=0;dashed=1;entryX=0;entryY=0.5;entryDx=0;entryDy=0;exitX=0.5;exitY=0.617;exitDx=0;exitDy=0;exitPerimeter=0;" edge="1" parent="1" source="6NcyVYANsM9x7sfS9dqc-3" target="6NcyVYANsM9x7sfS9dqc-5">
          <mxGeometry width="50" height="50" relative="1" as="geometry">
            <mxPoint x="262" y="227" as="sourcePoint" />
            <mxPoint x="312" y="177" as="targetPoint" />
          </mxGeometry>
        </mxCell>
        <mxCell id="6NcyVYANsM9x7sfS9dqc-14" value="" style="endArrow=classic;html=1;rounded=0;dashed=1;entryX=0;entryY=0.5;entryDx=0;entryDy=0;exitX=0.5;exitY=0.5;exitDx=0;exitDy=0;exitPerimeter=0;" edge="1" parent="1" source="6NcyVYANsM9x7sfS9dqc-3" target="6NcyVYANsM9x7sfS9dqc-6">
          <mxGeometry width="50" height="50" relative="1" as="geometry">
            <mxPoint x="322" y="363" as="sourcePoint" />
            <mxPoint x="476" y="189" as="targetPoint" />
          </mxGeometry>
        </mxCell>
        <mxCell id="6NcyVYANsM9x7sfS9dqc-15" value="" style="endArrow=classic;html=1;rounded=0;dashed=1;entryX=0;entryY=0.5;entryDx=0;entryDy=0;exitX=0.5;exitY=0.5;exitDx=0;exitDy=0;exitPerimeter=0;" edge="1" parent="1" source="6NcyVYANsM9x7sfS9dqc-3" target="6NcyVYANsM9x7sfS9dqc-7">
          <mxGeometry width="50" height="50" relative="1" as="geometry">
            <mxPoint x="322" y="363" as="sourcePoint" />
            <mxPoint x="476" y="262" as="targetPoint" />
          </mxGeometry>
        </mxCell>
        <mxCell id="6NcyVYANsM9x7sfS9dqc-16" value="" style="endArrow=classic;html=1;rounded=0;dashed=1;entryX=0;entryY=0.5;entryDx=0;entryDy=0;exitX=0.5;exitY=0.5;exitDx=0;exitDy=0;exitPerimeter=0;" edge="1" parent="1" source="6NcyVYANsM9x7sfS9dqc-3" target="6NcyVYANsM9x7sfS9dqc-8">
          <mxGeometry width="50" height="50" relative="1" as="geometry">
            <mxPoint x="322" y="363" as="sourcePoint" />
            <mxPoint x="476" y="335" as="targetPoint" />
          </mxGeometry>
        </mxCell>
        <mxCell id="6NcyVYANsM9x7sfS9dqc-17" value="" style="endArrow=classic;html=1;rounded=0;dashed=1;entryX=0;entryY=0.5;entryDx=0;entryDy=0;exitX=0.5;exitY=0.5;exitDx=0;exitDy=0;exitPerimeter=0;" edge="1" parent="1" source="6NcyVYANsM9x7sfS9dqc-3" target="6NcyVYANsM9x7sfS9dqc-9">
          <mxGeometry width="50" height="50" relative="1" as="geometry">
            <mxPoint x="322" y="363" as="sourcePoint" />
            <mxPoint x="476" y="408" as="targetPoint" />
          </mxGeometry>
        </mxCell>
        <mxCell id="6NcyVYANsM9x7sfS9dqc-18" value="" style="endArrow=classic;html=1;rounded=0;dashed=1;entryX=0;entryY=0.5;entryDx=0;entryDy=0;exitX=0.5;exitY=0.5;exitDx=0;exitDy=0;exitPerimeter=0;" edge="1" parent="1" source="6NcyVYANsM9x7sfS9dqc-3" target="6NcyVYANsM9x7sfS9dqc-10">
          <mxGeometry width="50" height="50" relative="1" as="geometry">
            <mxPoint x="322" y="363" as="sourcePoint" />
            <mxPoint x="476" y="481" as="targetPoint" />
          </mxGeometry>
        </mxCell>
        <mxCell id="6NcyVYANsM9x7sfS9dqc-19" value="Windgeschwindigkeit ansehen" style="ellipse;whiteSpace=wrap;html=1;" vertex="1" parent="1">
          <mxGeometry x="466" y="583" width="106" height="66" as="geometry" />
        </mxCell>
        <mxCell id="6NcyVYANsM9x7sfS9dqc-20" value="Windrichtung ansehen" style="ellipse;whiteSpace=wrap;html=1;" vertex="1" parent="1">
          <mxGeometry x="466" y="655" width="106" height="66" as="geometry" />
        </mxCell>
        <mxCell id="6NcyVYANsM9x7sfS9dqc-21" value="Luftqualität ansehen" style="ellipse;whiteSpace=wrap;html=1;" vertex="1" parent="1">
          <mxGeometry x="466" y="726" width="106" height="66" as="geometry" />
        </mxCell>
        <mxCell id="6NcyVYANsM9x7sfS9dqc-22" value="vergangene Wetterdaten ansehen" style="ellipse;whiteSpace=wrap;html=1;" vertex="1" parent="1">
          <mxGeometry x="466" y="797" width="106" height="66" as="geometry" />
        </mxCell>
        <mxCell id="6NcyVYANsM9x7sfS9dqc-24" value="Stadt auf Karte auswählen" style="ellipse;whiteSpace=wrap;html=1;" vertex="1" parent="1">
          <mxGeometry x="466" y="868" width="106" height="66" as="geometry" />
        </mxCell>
        <mxCell id="6NcyVYANsM9x7sfS9dqc-25" value="Ergbnis sehen, ob korrekt geraten wurde" style="ellipse;whiteSpace=wrap;html=1;" vertex="1" parent="1">
          <mxGeometry x="466" y="939" width="106" height="66" as="geometry" />
        </mxCell>
        <mxCell id="6NcyVYANsM9x7sfS9dqc-26" value="" style="endArrow=classic;html=1;rounded=0;dashed=1;entryX=0;entryY=0.5;entryDx=0;entryDy=0;exitX=0.5;exitY=0.5;exitDx=0;exitDy=0;exitPerimeter=0;" edge="1" parent="1" source="6NcyVYANsM9x7sfS9dqc-3" target="6NcyVYANsM9x7sfS9dqc-19">
          <mxGeometry width="50" height="50" relative="1" as="geometry">
            <mxPoint x="292" y="577" as="sourcePoint" />
            <mxPoint x="476" y="554" as="targetPoint" />
          </mxGeometry>
        </mxCell>
        <mxCell id="6NcyVYANsM9x7sfS9dqc-27" value="" style="endArrow=classic;html=1;rounded=0;dashed=1;entryX=0;entryY=0.5;entryDx=0;entryDy=0;exitX=0.5;exitY=0.5;exitDx=0;exitDy=0;exitPerimeter=0;" edge="1" parent="1" source="6NcyVYANsM9x7sfS9dqc-3" target="6NcyVYANsM9x7sfS9dqc-20">
          <mxGeometry width="50" height="50" relative="1" as="geometry">
            <mxPoint x="292" y="577" as="sourcePoint" />
            <mxPoint x="476" y="626" as="targetPoint" />
          </mxGeometry>
        </mxCell>
        <mxCell id="6NcyVYANsM9x7sfS9dqc-28" value="" style="endArrow=classic;html=1;rounded=0;dashed=1;entryX=0;entryY=0.5;entryDx=0;entryDy=0;exitX=0.5;exitY=0.5;exitDx=0;exitDy=0;exitPerimeter=0;" edge="1" parent="1" source="6NcyVYANsM9x7sfS9dqc-3" target="6NcyVYANsM9x7sfS9dqc-21">
          <mxGeometry width="50" height="50" relative="1" as="geometry">
            <mxPoint x="292" y="577" as="sourcePoint" />
            <mxPoint x="476" y="698" as="targetPoint" />
          </mxGeometry>
        </mxCell>
        <mxCell id="6NcyVYANsM9x7sfS9dqc-29" value="" style="endArrow=classic;html=1;rounded=0;dashed=1;entryX=0;entryY=0.5;entryDx=0;entryDy=0;exitX=0.5;exitY=0.5;exitDx=0;exitDy=0;exitPerimeter=0;" edge="1" parent="1" source="6NcyVYANsM9x7sfS9dqc-3" target="6NcyVYANsM9x7sfS9dqc-22">
          <mxGeometry width="50" height="50" relative="1" as="geometry">
            <mxPoint x="292" y="577" as="sourcePoint" />
            <mxPoint x="476" y="769" as="targetPoint" />
          </mxGeometry>
        </mxCell>
        <mxCell id="6NcyVYANsM9x7sfS9dqc-30" value="" style="endArrow=classic;html=1;rounded=0;dashed=1;entryX=0;entryY=0.5;entryDx=0;entryDy=0;exitX=0.5;exitY=0.5;exitDx=0;exitDy=0;exitPerimeter=0;" edge="1" parent="1" source="6NcyVYANsM9x7sfS9dqc-3" target="6NcyVYANsM9x7sfS9dqc-24">
          <mxGeometry width="50" height="50" relative="1" as="geometry">
            <mxPoint x="292" y="577" as="sourcePoint" />
            <mxPoint x="476" y="840" as="targetPoint" />
          </mxGeometry>
        </mxCell>
        <mxCell id="6NcyVYANsM9x7sfS9dqc-31" value="" style="endArrow=classic;html=1;rounded=0;dashed=1;entryX=0;entryY=0.5;entryDx=0;entryDy=0;exitX=0.5;exitY=0.5;exitDx=0;exitDy=0;exitPerimeter=0;" edge="1" parent="1" source="6NcyVYANsM9x7sfS9dqc-3" target="6NcyVYANsM9x7sfS9dqc-25">
          <mxGeometry width="50" height="50" relative="1" as="geometry">
            <mxPoint x="292" y="577" as="sourcePoint" />
            <mxPoint x="476" y="911" as="targetPoint" />
          </mxGeometry>
        </mxCell>
      </root>
    </mxGraphModel>
  </diagram>
</mxfile>
